<?xml version="1.0" encoding="UTF-8" standalone="no"?>
<!-- Generator: Gravit.io -->
<svg xmlns="http://www.w3.org/2000/svg" xmlns:xlink="http://www.w3.org/1999/xlink" style="isolation:isolate" viewBox="0 0 32 32" width="32pt" height="32pt"><defs><clipPath id="_clipPath_cPecs3IHcWXtNs9EAhhbcFXO4eU8X1cV"><rect width="32" height="32"/></clipPath></defs><g clip-path="url(#_clipPath_cPecs3IHcWXtNs9EAhhbcFXO4eU8X1cV)"><g><path d=" M 16.206 4.561 C 15.904 4.601 15.589 4.594 15.284 4.625 C 14.572 4.697 13.861 4.852 13.178 5.067 C 10.363 5.952 7.967 7.96 6.565 10.584 C 6.079 11.493 5.722 12.472 5.497 13.479 C 5.424 13.803 5.367 14.131 5.323 14.46 C 5.309 14.56 5.325 14.778 5.255 14.852 C 4.973 15.156 4.655 15.429 4.363 15.724 C 3.852 16.238 3.367 16.782 2.921 17.355 C 2.634 17.724 2.365 18.107 2.121 18.506 C 2.042 18.636 1.966 18.769 1.892 18.902 C 1.859 18.963 1.831 19.045 1.785 19.098 C 1.727 19.165 1.54 19.178 1.456 19.207 C 1.252 19.276 1.061 19.382 0.887 19.51 C 0.098 20.089 -0.194 21.152 0.13 22.071 C 0.292 22.531 0.624 22.937 1.036 23.189 C 1.143 23.254 1.257 23.312 1.372 23.359 C 1.429 23.382 1.509 23.394 1.557 23.434 C 1.668 23.525 1.746 23.703 1.84 23.816 C 2.047 24.062 2.291 24.28 2.555 24.46 C 3.573 25.154 4.844 25.394 6.05 25.448 C 6.38 25.462 6.715 25.481 7.047 25.466 C 7.657 25.439 8.266 25.403 8.873 25.322 C 9.075 25.295 9.277 25.268 9.479 25.236 C 9.559 25.223 9.679 25.18 9.758 25.197 C 9.837 25.215 9.926 25.31 9.991 25.357 C 10.156 25.476 10.325 25.587 10.494 25.699 C 10.977 26.016 11.495 26.287 12.023 26.519 C 13.926 27.354 16.028 27.632 18.079 27.359 C 22.023 26.834 25.511 24.09 27.01 20.364 C 27.361 19.491 27.607 18.58 27.74 17.648 C 27.784 17.335 27.813 17.019 27.835 16.705 C 27.841 16.604 27.807 16.403 27.86 16.318 C 27.91 16.237 28.007 16.17 28.078 16.108 C 28.183 16.014 28.281 15.912 28.385 15.816 C 28.683 15.543 28.971 15.243 29.241 14.941 C 29.517 14.632 29.788 14.32 30.049 13.998 C 30.26 13.737 30.456 13.463 30.647 13.187 C 31.65 11.734 32.532 9.685 31.616 7.971 C 31.129 7.06 30.248 6.487 29.298 6.167 C 27.771 5.652 26.106 5.7 24.527 5.86 C 24.028 5.911 23.532 5.995 23.037 6.079 C 22.89 6.104 22.744 6.133 22.599 6.162 C 22.539 6.174 22.458 6.207 22.398 6.197 C 22.343 6.189 22.282 6.138 22.235 6.11 C 22.125 6.043 22.013 5.98 21.9 5.918 C 21.541 5.722 21.17 5.544 20.791 5.391 C 19.725 4.959 18.593 4.675 17.446 4.594 C 17.046 4.566 16.606 4.508 16.206 4.561 M 25.152 14.234 C 25.336 14.126 25.497 13.936 25.655 13.792 C 26.017 13.462 26.357 13.112 26.699 12.762 C 26.824 12.634 26.942 12.499 27.063 12.366 C 27.104 12.321 27.184 12.258 27.198 12.196 C 27.216 12.113 27.122 11.954 27.092 11.876 C 26.982 11.59 26.856 11.314 26.729 11.036 C 26.328 10.152 25.772 9.323 25.149 8.584 C 24.96 8.359 24.762 8.142 24.555 7.933 C 24.445 7.822 24.3 7.713 24.211 7.585 C 24.379 7.544 24.561 7.536 24.732 7.517 C 25.043 7.483 25.353 7.456 25.664 7.443 C 26.704 7.397 27.778 7.414 28.777 7.751 C 29.466 7.984 30.128 8.4 30.306 9.16 C 30.442 9.742 30.255 10.379 30.029 10.914 C 29.516 12.131 28.631 13.211 27.714 14.139 L 27.705 14.139 L 27.696 14.12 L 27.686 14.12 C 27.594 14.253 27.455 14.364 27.342 14.479 C 27.069 14.754 26.783 15.017 26.494 15.274 C 25.564 16.099 24.595 16.853 23.577 17.563 C 21.884 18.744 20.068 19.757 18.21 20.645 C 15.678 21.855 13.012 22.844 10.261 23.401 C 8.769 23.703 7.215 23.905 5.696 23.751 C 4.939 23.675 4.141 23.521 3.496 23.09 C 3.544 22.994 3.682 22.912 3.757 22.835 C 3.9 22.69 4.026 22.517 4.118 22.335 C 4.485 21.617 4.451 20.748 4.006 20.072 C 3.855 19.842 3.662 19.674 3.459 19.496 L 3.459 19.487 C 3.596 19.296 3.71 19.086 3.845 18.893 C 4.123 18.495 4.426 18.117 4.744 17.751 C 4.907 17.564 5.077 17.324 5.276 17.176 C 5.316 17.346 5.319 17.531 5.344 17.704 C 5.391 18.027 5.452 18.349 5.527 18.666 C 5.74 19.575 6.074 20.436 6.485 21.269 C 6.641 21.583 6.819 21.889 7.007 22.184 C 7.055 22.261 7.14 22.457 7.225 22.492 C 7.279 22.515 7.372 22.483 7.429 22.477 C 7.606 22.457 7.783 22.43 7.96 22.404 C 8.646 22.301 9.35 22.186 10.019 21.996 C 9.723 21.602 9.397 21.244 9.131 20.826 C 8.442 19.743 7.953 18.481 7.81 17.195 C 7.667 15.902 7.744 14.605 8.128 13.356 C 9.114 10.143 11.932 7.716 15.209 7.202 C 17.604 6.826 20.097 7.509 21.993 9.037 C 22.798 9.686 23.484 10.473 24.028 11.357 C 24.421 11.995 24.727 12.686 24.947 13.404 C 25.027 13.663 25.14 13.961 25.152 14.234 M 14.017 8.532 C 13.87 8.555 13.723 8.631 13.588 8.689 C 13.332 8.801 13.079 8.919 12.833 9.053 C 11.603 9.726 10.532 10.704 9.835 11.942 C 9.532 12.481 9.278 13.041 9.084 13.63 C 9.03 13.795 8.863 14.213 9.181 14.205 C 9.376 14.2 9.415 13.832 9.463 13.687 C 9.648 13.126 9.883 12.577 10.191 12.074 C 10.825 11.037 11.699 10.173 12.731 9.542 C 13.025 9.363 13.335 9.202 13.653 9.071 C 13.817 9.004 14.071 8.957 14.203 8.837 C 14.36 8.693 14.187 8.505 14.017 8.532 M 14.259 9.343 C 14.132 9.366 14.004 9.435 13.886 9.486 C 13.648 9.588 13.415 9.701 13.187 9.826 C 12.094 10.426 11.171 11.303 10.545 12.394 C 10.271 12.873 10.055 13.379 9.882 13.903 C 9.828 14.068 9.693 14.438 10.001 14.422 C 10.181 14.412 10.22 14.078 10.265 13.941 C 10.433 13.431 10.658 12.939 10.934 12.479 C 11.467 11.591 12.222 10.844 13.103 10.312 C 13.391 10.138 13.69 9.985 13.998 9.851 C 14.138 9.79 14.352 9.748 14.461 9.637 C 14.612 9.484 14.424 9.313 14.259 9.343 Z  M 14.548 10.145 C 14.231 10.201 13.906 10.398 13.625 10.548 C 12.623 11.084 11.82 11.894 11.242 12.875 C 11 13.286 10.799 13.736 10.666 14.196 C 10.623 14.347 10.545 14.668 10.811 14.646 C 10.985 14.632 11.01 14.364 11.053 14.234 C 11.198 13.795 11.383 13.364 11.622 12.97 C 12.099 12.184 12.743 11.527 13.523 11.048 C 13.774 10.893 14.036 10.758 14.306 10.639 C 14.429 10.584 14.615 10.553 14.714 10.458 C 14.844 10.332 14.716 10.115 14.548 10.145 M 14.809 10.956 C 14.514 11.002 14.209 11.192 13.951 11.335 C 13.116 11.8 12.426 12.491 11.952 13.328 C 11.751 13.683 11.572 14.065 11.465 14.46 C 11.425 14.607 11.37 14.872 11.613 14.863 C 11.774 14.857 11.805 14.639 11.846 14.517 C 11.97 14.139 12.126 13.774 12.328 13.432 C 12.731 12.75 13.297 12.176 13.97 11.767 C 14.177 11.641 14.392 11.53 14.613 11.431 C 14.723 11.382 14.876 11.352 14.965 11.268 C 15.095 11.146 14.976 10.929 14.809 10.956 M 15.051 11.767 C 14.829 11.807 14.606 11.949 14.408 12.053 C 13.676 12.436 13.066 13.056 12.664 13.781 C 12.495 14.085 12.352 14.406 12.259 14.743 C 12.219 14.89 12.224 15.098 12.433 15.082 C 12.575 15.07 12.604 14.901 12.641 14.79 C 12.745 14.472 12.874 14.164 13.044 13.875 C 13.369 13.323 13.822 12.86 14.361 12.521 C 14.538 12.41 14.722 12.315 14.911 12.228 C 15.013 12.181 15.144 12.153 15.224 12.07 C 15.348 11.939 15.218 11.737 15.051 11.767 M 16.393 13.898 C 15.942 13.958 15.536 14.086 15.181 14.389 C 14.978 14.562 14.815 14.772 14.686 15.007 C 14.222 15.855 14.441 16.974 15.153 17.607 C 15.609 18.012 16.224 18.187 16.821 18.107 C 17.127 18.067 17.421 17.956 17.679 17.786 C 17.894 17.643 18.084 17.464 18.234 17.252 C 18.886 16.328 18.691 14.996 17.79 14.313 C 17.59 14.16 17.361 14.045 17.12 13.975 C 16.893 13.909 16.629 13.867 16.393 13.898 M 24.937 18.647 C 24.794 19.158 24.574 19.649 24.334 20.119 C 22.796 23.135 19.534 25.059 16.188 24.91 C 15.524 24.881 14.874 24.779 14.231 24.607 C 13.957 24.534 13.644 24.459 13.392 24.325 C 13.482 24.268 13.617 24.247 13.718 24.217 C 13.9 24.164 14.08 24.103 14.259 24.042 C 14.866 23.837 15.468 23.618 16.067 23.387 C 17.075 22.999 18.064 22.558 19.039 22.092 C 19.505 21.869 19.955 21.598 20.428 21.392 C 20.342 21.497 20.187 21.571 20.073 21.644 C 19.767 21.839 19.445 22.009 19.114 22.157 C 18.988 22.213 18.858 22.256 18.732 22.311 C 18.666 22.339 18.594 22.375 18.57 22.448 C 18.522 22.587 18.665 22.715 18.798 22.677 C 19.127 22.583 19.443 22.422 19.747 22.267 C 20.287 21.991 20.79 21.631 21.238 21.221 C 21.434 21.042 21.596 20.829 21.79 20.65 C 21.925 20.525 22.132 20.444 22.291 20.351 C 22.459 20.252 22.631 20.111 22.813 20.043 C 22.69 20.307 22.476 20.552 22.297 20.779 C 21.701 21.533 20.948 22.132 20.12 22.605 C 19.801 22.787 19.464 22.933 19.123 23.069 C 19.01 23.114 18.817 23.153 18.809 23.306 C 18.794 23.59 19.145 23.462 19.281 23.408 C 19.765 23.219 20.227 22.987 20.67 22.714 C 21.452 22.233 22.136 21.594 22.697 20.864 C 22.896 20.606 23.078 20.333 23.243 20.053 C 23.322 19.919 23.386 19.736 23.488 19.621 C 23.534 19.568 23.612 19.533 23.67 19.496 C 23.783 19.424 23.894 19.35 24.006 19.276 C 24.219 19.135 24.428 18.989 24.639 18.845 C 24.734 18.781 24.83 18.689 24.937 18.647 L 24.937 18.647 Z " fill="rgb(61,227,255)"/></g></g></svg>